<?xml version="1.0" encoding="UTF-8" standalone="no"?>
<svg width="26px" height="19px" viewBox="0 0 26 19" version="1.1" xmlns="http://www.w3.org/2000/svg" xmlns:xlink="http://www.w3.org/1999/xlink">
    <!-- Generator: Sketch 43.2 (39069) - http://www.bohemiancoding.com/sketch -->
    <title>icon-link copy</title>
    <desc>Created with Sketch.</desc>
    <defs></defs>
    <g id="Page-1" stroke="none" stroke-width="1" fill="none" fill-rule="evenodd" stroke-linecap="round">
        <g id="04.1-Detail-oeuvre-ouvert-1" transform="translate(-234.000000, -1199.000000)" stroke="#FCC854">
            <g id="Contenu" transform="translate(56.000000, 216.000000)">
                <g id="Aller-plus-loin" transform="translate(0.000000, 941.000000)">
                    <g id="Links" transform="translate(2.000000, 41.000000)">
                        <g id="icon-link" transform="translate(177.000000, 2.000000)">
                            <g>
                                <path d="M16.0462807,2.015625 L17.8270499,0.697252342 C19.3187807,-0.445650884 21.4685884,-0.152425078 22.6041653,1.34892976 L23.541473,2.58802654 C24.6770499,4.08938137 24.3857037,6.25286524 22.893973,7.39596202 L16.0462807,12.6426717 C14.3616653,13.9334459 11.933973,13.6022846 10.6516653,11.9068007 L9.5472422,10.4468652 C8.67628066,9.29544589 8.86801143,7.65105879 9.95820374,6.73015557" id="Stroke-1" stroke-width="1.5"></path>
                                <path d="M8.30004572,14.4101563 L6.48119957,15.7138255 C4.90716111,16.9198255 2.63889188,16.6103417 1.44043034,15.0261481 L0.73100726,14.0882126 C-0.467261971,12.5040191 -0.159761971,10.2211159 1.41427649,9.01511587 L8.30004572,3.73918039 C9.88139188,2.52756748 12.160238,2.83840619 13.3642765,4.42995458 L14.6113919,6.07879329 C15.2211996,7.0492449 15.0931226,9.11382555 14.2004303,9.79550297" id="Stroke-3" stroke-width="1.5"></path>
                            </g>
                        </g>
                    </g>
                </g>
            </g>
        </g>
    </g>
</svg>