<?xml version="1.0" encoding="utf-8"?>
<!-- Generator: Adobe Illustrator 20.1.0, SVG Export Plug-In . SVG Version: 6.00 Build 0)  -->
<svg version="1.1" id="Calque_1" xmlns="http://www.w3.org/2000/svg" xmlns:xlink="http://www.w3.org/1999/xlink" x="0px" y="0px"
	 viewBox="0 0 560 560" style="enable-background:new 0 0 560 560;" xml:space="preserve">
<style type="text/css">
	.st0{fill:#F8F7F7;}
	.st1{fill:#FFFFFF;}
	.st2{fill:#FCC856;}
	.st3{fill:#F9D998;}
	.st4{fill:none;stroke:#2A292A;stroke-width:2;stroke-miterlimit:10;}
	.st5{fill:none;stroke:#2A292A;stroke-width:3;stroke-miterlimit:10;}
	.st6{fill:none;stroke:#C4BEBB;stroke-width:3;stroke-miterlimit:10;}
	.st7{clip-path:url(#SVGID_2_);fill:none;stroke:#2A292A;stroke-width:3;stroke-miterlimit:10;}
	.st8{clip-path:url(#SVGID_2_);fill:#C4BEBB;}
	.st9{clip-path:url(#SVGID_2_);fill:#2A292A;}
	.st10{clip-path:url(#SVGID_2_);}
	.st11{fill:#020203;}
	.st12{font-family:'PTSans-Regular';}
	.st13{font-size:51.8595px;}
	.st14{font-size:14.4159px;}
</style>
<path class="st0" d="M164.7,383.7V181.2c0-5.1,4.2-9.2,9.2-9.2h286.2c5.1,0,9.2,4.2,9.2,9.2v202.5c0,5.1-4.2,9.2-9.2,9.2H174
	C168.9,392.9,164.7,388.7,164.7,383.7z"/>
<rect x="62.6" y="139.7" class="st1" width="118.5" height="118.5"/>
<rect x="223.9" y="165.4" transform="matrix(-1.836970e-16 1 -1 -1.836970e-16 608.437 -29.5236)" class="st1" width="190.1" height="248.2"/>
<rect x="210.7" y="292.5" class="st2" width="200" height="27.8"/>
<rect x="223.6" y="292.5" class="st3" width="187.1" height="16.2"/>
<path class="st0" d="M427.4,433.4c2.2-5.7,4.4-28.7-0.1-53.5c-2.8-15.3-4.9-22.6-4.9-22.6c-1.5-5.4-6.9-8.6-12-7.2h0
	c-5.1,1.4-8,7-6.5,12.4l2.3,8.3l-4.6-16.6c-1.5-5.4-6.9-8.6-12-7.2h0c-5.1,1.4-8,7-6.5,12.4c0,0,4.6,15.7,4.6,15.7l-5.8-19.7
	c-1.5-5.4-6.9-8.6-12-7.2l0,0c-5.1,1.4-7.8,6.7-6.3,12.1l5.4,20.6c0,0-15.8-57.9-15.8-57.9c-1.5-5.4-6.9-8.6-12-7.2l0,0
	c-5.1,1.4-8,7-6.5,12.4c0,0,22.1,73.3,20.7,74.1s-17.6-17.3-17.6-17.3c-3.7-4.2-10.1-4.7-14.4-1h0c-4.2,3.7-3.1,12.2,0.6,16.4
	c0,0,27.9,35.7,46.1,45.4c0,0,8.4,5.9,30.7,0.8C423.1,441.5,427.4,433.4,427.4,433.4z"/>
<rect x="71.8" y="130.6" class="st0" width="118.5" height="118.5"/>
<g>
	<path class="st2" d="M81.7,184c0,0,3.4,21,18,37.9s35.5,23.5,35.5,23.5l19.2-17.3c0,0-22-5-36.6-21.9s-16.3-39.4-16.3-39.4
		L81.7,184z"/>
	<path class="st2" d="M106.2,158.1c0,0,20.3,6.3,35.1,23c14.8,16.8,18.3,39.3,18.3,39.3l-22-8.2c-5.2-9.7-7.9-13.3-11-16.8
		c-2.8-3.2-8.6-8.7-14.3-11.1L106.2,158.1z"/>
</g>
<g>
	<polyline class="st4" points="104.7,209.1 113.6,201.4 107.7,201 	"/>
	<polyline class="st4" points="120.2,203.6 111.3,211.2 117.2,211.7 	"/>
	<path class="st5" d="M85.5,176.8c0,0,3.4,21,18,37.9s35.5,23.5,35.5,23.5l19.2-17.3c0,0-22-5-36.6-21.9s-16.3-39.4-16.3-39.4
		L85.5,176.8z"/>
	<path class="st5" d="M137.5,212.3c-5.2-9.7-7.9-13.3-11-16.8c-2.8-3.2-8.6-8.7-14.3-11.1"/>
	<path class="st5" d="M106.2,158.1c0,0,20.3,6.3,35.1,23c14.8,16.8,18.3,39.3,18.3,39.3"/>
</g>
<path class="st6" d="M365.3,384.4l-5.4-20.6c-1.5-5.4,1.2-10.7,6.3-12.1v0c5.1-1.4,10.5,1.8,12,7.2l5.8,19.7"/>
<path class="st6" d="M384,378.6l-4.6-15.7c-1.5-5.4,1.4-11,6.5-12.4h0c5.1-1.4,10.5,1.8,12,7.2l4.6,16.6"/>
<path class="st6" d="M402.5,374.3l-2.3-8.3c-1.5-5.4,1.4-11,6.5-12.4h0c5.1-1.4,10.5,1.8,12,7.2c0,0,2.2,7.3,4.9,22.6
	c4.5,24.7,2.3,47.8,0.1,53.5"/>
<path class="st6" d="M366.4,449.2c-18.2-9.7-46.1-45.4-46.1-45.4c-3.7-4.2-4.8-12.7-0.6-16.4h0c4.2-3.7,10.7-3.2,14.4,1
	c0,0,16.3,18.1,17.6,17.3c1.4-0.8-20.7-74.1-20.7-74.1c-1.5-5.4,1.4-11,6.5-12.4v0c5.1-1.4,10.5,1.8,12,7.2l15.8,57.9"/>
<path class="st5" d="M366.7,450.1"/>
<g>
	<defs>
		<path id="SVGID_1_" d="M428.1,384.5v-41.8h-65.4l-9.9-22.4h-26.9l-6.9,10.7l25.4,51.6l2.1,7.3l-5.9,0.4l-6.9-10.8
			c0,0-15,5.1-16.5,8.4c-1.5,3.3-2.8,6.8-0.1,12.5c2.7,5.7,2.9,9.5,2.9,9.5l-185.5,1.8V258.3h47.3V172h11.3l17.6-49.1l269.7,11.3
			l5,256.3l-45,23.7l-10.7-12.4L428.1,384.5z"/>
	</defs>
	<clipPath id="SVGID_2_">
		<use xlink:href="#SVGID_1_"  style="overflow:visible;"/>
	</clipPath>
	<path class="st7" d="M156,391.3V188.9c0-5.1,4.2-9.2,9.2-9.2h286.2c5.1,0,9.2,4.2,9.2,9.2v202.5c0,5.1-4.2,9.2-9.2,9.2H165.2
		C160.1,400.6,156,396.4,156,391.3z"/>
	
		<rect x="223.9" y="165.4" transform="matrix(-1.836970e-16 1 -1 -1.836970e-16 608.437 -29.5236)" class="st7" width="190.1" height="248.2"/>
	<circle class="st8" cx="175.1" cy="289.5" r="8.9"/>
	<rect x="217.1" y="286.2" class="st7" width="200" height="27.8"/>
	<rect x="228.1" y="295.1" class="st9" width="85.9" height="9.4"/>
	<rect x="335.8" y="295.1" class="st9" width="49" height="9.4"/>
	<g class="st10">
		<text transform="matrix(1 0 0 1 288.1643 260.6053)" class="st11 st12 st13">@</text>
	</g>
	<g class="st10">
		<text transform="matrix(1 0 0 1 317.1213 304.1122)" class="st11 st12 st14">@</text>
	</g>
</g>
<rect x="63.3" y="139.8" class="st6" width="118.5" height="118.5"/>
</svg>
