<?xml version="1.0" encoding="utf-8"?>
<!-- Generator: Adobe Illustrator 20.1.0, SVG Export Plug-In . SVG Version: 6.00 Build 0)  -->
<svg version="1.1" id="Calque_1" xmlns="http://www.w3.org/2000/svg" xmlns:xlink="http://www.w3.org/1999/xlink" x="0px" y="0px"
	 viewBox="0 0 560 560" style="enable-background:new 0 0 560 560;" xml:space="preserve">
<style type="text/css">
	.st0{fill:#F8F7F7;}
	.st1{fill:#FFFFFF;}
	.st2{fill:#FCC856;}
	.st3{fill:#F9D998;}
	.st4{clip-path:url(#SVGID_2_);}
	.st5{fill:none;stroke:#C4BEBB;stroke-width:3;stroke-miterlimit:10;}
	.st6{clip-path:url(#SVGID_4_);}
	.st7{clip-path:url(#SVGID_6_);}
	.st8{clip-path:url(#SVGID_8_);}
	.st9{clip-path:url(#SVGID_10_);}
	.st10{fill:none;stroke:#2A292A;stroke-width:3;stroke-miterlimit:10;}
	.st11{fill:#C4BEBB;}
	.st12{fill:#C4BEBB;stroke:#C4BEBB;stroke-width:2;stroke-miterlimit:10;}
	.st13{fill:none;stroke:#C4BEBB;stroke-width:4;stroke-miterlimit:10;}
	.st14{fill:none;stroke:#C4BEBB;stroke-width:6;stroke-miterlimit:10;}
	.st15{fill:none;stroke:#2A292A;stroke-width:2;stroke-miterlimit:10;}
	.st16{clip-path:url(#SVGID_12_);}
</style>
<rect x="31.4" y="134.1" transform="matrix(0.9744 -0.2248 0.2248 0.9744 -39.1535 25.3463)" class="st0" width="120.7" height="101"/>
<rect x="37.5" y="150.2" transform="matrix(0.9744 -0.2248 0.2248 0.9744 -40.5404 24.8595)" class="st1" width="102.9" height="80.5"/>
<rect x="113.7" y="83.6" transform="matrix(0.9894 -0.1452 0.1452 0.9894 -17.6299 26.6887)" class="st0" width="120.7" height="101"/>
<rect x="119.2" y="99.3" transform="matrix(0.9894 -0.1452 0.1452 0.9894 -18.4629 26.2577)" class="st1" width="102.9" height="80.5"/>
<rect x="222.2" y="108.3" class="st0" width="111.9" height="93.7"/>
<rect x="226.6" y="122.8" class="st1" width="95.4" height="74.7"/>
<rect x="302.6" y="79.5" transform="matrix(0.9899 0.1414 -0.1414 0.9899 22.0395 -50.0295)" class="st0" width="120.7" height="101"/>
<rect x="305.1" y="93.8" transform="matrix(0.9899 0.1414 -0.1414 0.9899 22.5548 -49.087)" class="st1" width="102.9" height="80.5"/>
<polygon class="st1" points="222.8,113.3 222.8,188.8 219.9,188.6 219.9,113.1 "/>
<polygon class="st1" points="300.7,106.3 305.6,106.3 302.8,126 298.1,124.9 "/>
<polygon class="st1" points="359.7,182.2 371.7,183.9 374,174.4 379.6,174.4 376.2,188.8 362.1,188.6 "/>
<rect x="379.2" y="121.1" transform="matrix(0.9719 0.2355 -0.2355 0.9719 52.7527 -98.6571)" class="st0" width="120.7" height="101"/>
<rect x="383.1" y="134.1" transform="matrix(0.9719 0.2355 -0.2355 0.9719 53.2778 -97.4076)" class="st1" width="102.9" height="80.5"/>
<path class="st1" d="M447.1,433.9H101.5c-3.9,0-7-3.1-7-7V195.6c0-3.8,3.1-7,7-7h345.6c3.9,0,7,3.2,7,7v231.3
	C454.1,430.7,451,433.9,447.1,433.9z"/>
<polygon class="st1" points="336.5,182.3 319.9,180.5 319.9,174.9 336.5,177.3 "/>
<polygon class="st1" points="111.8,126 114.8,146.5 110.5,147.3 107.7,126 "/>
<polygon class="st0" points="325.5,480.8 238.1,480.8 241.1,433.9 322.4,433.9 "/>
<path class="st0" d="M348.3,493.1v-2.5c0-5.9-3.8-9.7-9.2-9.7H230.2c-5.5,0-10.2,3.8-10.2,9.7v2.5H348.3z"/>
<path class="st0" d="M100.3,393.4v33.8c0,3.8,3.2,7,7,7h345.6c3.9,0,7-3.2,7-7v-33.8H100.3z"/>
<rect x="108.8" y="201.2" class="st0" width="336.7" height="181.8"/>
<rect x="168.5" y="267.4" class="st1" width="63.2" height="49.5"/>
<g>
	<rect x="312.4" y="219.3" class="st1" width="67.5" height="61.7"/>
</g>
<rect x="164.7" y="273.8" class="st2" width="60.1" height="46.5"/>
<rect x="175" y="273.8" class="st3" width="49.8" height="36.8"/>
<rect x="308.5" y="224.8" class="st2" width="65.5" height="59.6"/>
<rect x="317.3" y="224.8" class="st3" width="56.7" height="50.7"/>
<rect x="239.8" y="230.8" class="st1" width="91.4" height="127.7"/>
<rect x="234.3" y="236.8" class="st2" width="87.7" height="125.4"/>
<rect x="247" y="236.8" class="st3" width="75" height="114"/>
<g>
	<defs>
		<polygon id="SVGID_1_" points="227.8,113.3 218.4,113.3 218.4,188.6 103.4,188.6 90.6,83.7 249.4,57.7 250.1,101.4 		"/>
	</defs>
	<clipPath id="SVGID_2_">
		<use xlink:href="#SVGID_1_"  style="overflow:visible;"/>
	</clipPath>
	<g class="st4">
		
			<rect x="119.2" y="99.3" transform="matrix(0.9894 -0.1452 0.1452 0.9894 -18.4629 26.2577)" class="st5" width="102.9" height="80.5"/>
		
			<rect x="110.3" y="89.1" transform="matrix(0.9894 -0.1452 0.1452 0.9894 -18.4629 26.2577)" class="st5" width="120.7" height="101"/>
		<ellipse transform="matrix(0.9894 -0.1452 0.1452 0.9894 -15.4058 29.5364)" class="st5" cx="194.6" cy="120.3" rx="6" ry="6"/>
		<polyline class="st5" points="130,171.5 195.7,146.7 217.6,156.2 		"/>
		<polygon class="st5" points="135.6,133.2 144.9,118.1 158.1,129.9 		"/>
		<polygon class="st5" points="130.8,152.7 143.4,132.1 150.3,131 168.3,147.2 		"/>
		<line class="st5" x1="149.6" y1="150" x2="150.9" y2="159"/>
	</g>
</g>
<g>
	<defs>
		<polygon id="SVGID_3_" points="106.2,115.7 116.3,188.6 94.7,188.6 94.7,247.9 31.7,267.4 8.4,121.9 		"/>
	</defs>
	<clipPath id="SVGID_4_">
		<use xlink:href="#SVGID_3_"  style="overflow:visible;"/>
	</clipPath>
	<g class="st6">
		
			<rect x="37.5" y="150.2" transform="matrix(0.9744 -0.2248 0.2248 0.9744 -40.5404 24.8595)" class="st5" width="102.9" height="80.5"/>
		
			<rect x="28.6" y="140" transform="matrix(0.9744 -0.2248 0.2248 0.9744 -40.5404 24.8595)" class="st5" width="120.7" height="101"/>
		<ellipse transform="matrix(0.9744 -0.2248 0.2248 0.9744 -35.7578 26.0099)" class="st5" cx="96.3" cy="170" rx="8.7" ry="8.7"/>
		<path class="st5" d="M49,214.6c6.5-9.3,19.6-12.3,30.6-9.4c5,1.3,9.8,3.6,14.9,3.4c5.5-0.2,10.5-3.4,14.8-6.8s8.5-7.3,13.6-9.5
			c3-1.3,6.2-1.9,9.5-1.9"/>
		<path class="st5" d="M76.9,226c2.8-3.6,7-6.1,11.5-6.7c3.9-0.6,7.9,0.1,11.9,0.2c3.8,0.1,7.7-0.4,11.2-2c3.5-1.6,6.6-4.3,8.1-7.8"
			/>
	</g>
</g>
<g>
	<defs>
		<polygon id="SVGID_5_" points="298.6,113.3 289.7,175.6 334.8,182 334.8,188.6 214.7,188.6 214.7,104.4 296.1,104.4 		"/>
	</defs>
	<clipPath id="SVGID_6_">
		<use xlink:href="#SVGID_5_"  style="overflow:visible;"/>
	</clipPath>
	<g class="st7">
		<rect x="226.6" y="122.8" class="st5" width="95.4" height="74.7"/>
		<rect x="218.4" y="113.3" class="st5" width="111.9" height="93.7"/>
		<circle class="st5" cx="257" cy="143.2" r="8"/>
		<polyline class="st5" points="235,181.6 255.6,164.7 266.4,174.1 		"/>
		<polyline class="st5" points="314.8,184.5 286.9,155.6 255.7,184.5 		"/>
	</g>
</g>
<g>
	<defs>
		<polygon id="SVGID_7_" points="424,119.9 387.8,111.1 369,188.6 280.1,188.6 288.6,60.4 449.6,64.4 		"/>
	</defs>
	<clipPath id="SVGID_8_">
		<use xlink:href="#SVGID_7_"  style="overflow:visible;"/>
	</clipPath>
	<g class="st8">
		
			<rect x="305.1" y="93.8" transform="matrix(0.9899 0.1414 -0.1414 0.9899 22.5548 -49.087)" class="st5" width="102.9" height="80.5"/>
		
			<rect x="296.2" y="83.6" transform="matrix(0.9899 0.1414 -0.1414 0.9899 22.5548 -49.087)" class="st5" width="120.7" height="101"/>
		
			<ellipse transform="matrix(0.1414 -0.9899 0.9899 0.1414 155.1413 512.5339)" class="st5" cx="373.1" cy="166.8" rx="4.3" ry="4.3"/>
		
			<ellipse transform="matrix(0.1414 -0.9899 0.9899 0.1414 173.2247 415.5336)" class="st5" cx="326.2" cy="107.9" rx="8.7" ry="8.7"/>
		<path class="st5" d="M352.1,110.4c1.1-1,2.6-1.3,4.1-1.6c1.4-0.3,2.9-0.5,4.3-0.2c2.5,0.6,4.2,2.8,6.4,4c3.8,2.1,9.2,0.7,11.5-2.9
			"/>
		<line class="st5" x1="333.5" y1="138" x2="330.9" y2="156.3"/>
		<line class="st5" x1="341.3" y1="148.4" x2="323" y2="145.8"/>
		<polygon class="st5" points="363.3,141 376.5,129.2 385.9,144.2 		"/>
	</g>
</g>
<g>
	<defs>
		<polygon id="SVGID_9_" points="365.3,188.6 449.6,188.6 454.3,195.6 454.3,250.1 502.4,254.9 555.4,117.1 435.8,78.7 378.1,106.1 
					"/>
	</defs>
	<clipPath id="SVGID_10_">
		<use xlink:href="#SVGID_9_"  style="overflow:visible;"/>
	</clipPath>
	<g class="st9">
		
			<rect x="383.1" y="134.1" transform="matrix(0.9719 0.2355 -0.2355 0.9719 53.2778 -97.4076)" class="st5" width="102.9" height="80.5"/>
		
			<rect x="374.2" y="123.9" transform="matrix(0.9719 0.2355 -0.2355 0.9719 53.2778 -97.4076)" class="st5" width="120.7" height="101"/>
		
			<ellipse transform="matrix(0.2355 -0.9719 0.9719 0.2355 172.7047 521.9602)" class="st5" cx="418.1" cy="151.2" rx="8.9" ry="8.9"/>
		<path class="st5" d="M395.8,183.9l2.3-9.5c1.8-7.5,9.4-12.1,16.9-10.3l0,0c7.5,1.8,12.1,9.4,10.3,16.9l-2.3,9.5L395.8,183.9z"/>
		
			<ellipse transform="matrix(0.2355 -0.9719 0.9719 0.2355 195.9412 568.4367)" class="st5" cx="459.3" cy="159.7" rx="12.1" ry="12.1"/>
		<path class="st5" d="M429.5,202.5l3.1-12.9c2.4-10.1,12.7-16.4,22.8-13.9l0,0c10.1,2.4,16.4,12.7,13.9,22.8l-3.1,12.9L429.5,202.5
			z"/>
	</g>
</g>
<path class="st10" d="M447.3,433.9H101.7c-3.8,0-7-3.1-7-7V195.6c0-3.8,3.2-7,7-7h345.6c3.9,0,7,3.2,7,7v231.3
	C454.3,430.7,451.2,433.9,447.3,433.9z"/>
<line class="st10" x1="94.7" y1="393" x2="454.3" y2="393"/>
<rect x="106.2" y="200.5" class="st10" width="336.7" height="181.8"/>
<circle class="st11" cx="274.5" cy="413.8" r="9.9"/>
<polygon class="st10" points="318.2,480.8 230.9,480.8 233.9,433.9 315.2,433.9 "/>
<path class="st10" d="M339.8,493.1v-2.5c0-5.9-4-9.7-9.9-9.7H222.7c-5.9,0-10.9,3.8-10.9,9.7v2.5H339.8z"/>
<rect x="239.8" y="230.8" class="st10" width="91.4" height="127.7"/>
<rect x="168.5" y="267.4" class="st10" width="63.2" height="49.5"/>
<circle class="st12" cx="117.7" cy="246.4" r="1.5"/>
<circle class="st12" cx="117.7" cy="255" r="1.5"/>
<circle class="st12" cx="117.7" cy="263.6" r="1.5"/>
<circle class="st12" cx="117.7" cy="272.2" r="1.5"/>
<circle class="st12" cx="117.7" cy="280.8" r="1.5"/>
<circle class="st12" cx="117.7" cy="290.8" r="2.7"/>
<circle class="st10" cx="188.6" cy="281" r="5.3"/>
<circle class="st10" cx="268.2" cy="255" r="8.9"/>
<circle class="st10" cx="308" cy="323.9" r="2.7"/>
<circle class="st12" cx="117.7" cy="302.1" r="3.7"/>
<circle class="st11" cx="432.1" cy="373.1" r="3.7"/>
<circle class="st11" cx="420.3" cy="373.1" r="3.7"/>
<circle class="st12" cx="117.7" cy="313.4" r="2.7"/>
<circle class="st12" cx="117.7" cy="323.3" r="1.5"/>
<circle class="st12" cx="117.7" cy="331.9" r="1.5"/>
<circle class="st12" cx="117.7" cy="340.5" r="1.5"/>
<circle class="st12" cx="117.7" cy="349.2" r="1.5"/>
<circle class="st12" cx="117.7" cy="357.8" r="1.5"/>
<circle class="st12" cx="117.7" cy="366.4" r="1.5"/>
<line class="st13" x1="116.3" y1="211.1" x2="157" y2="211.1"/>
<line class="st14" x1="116.3" y1="221" x2="186.7" y2="221"/>
<line class="st10" x1="239.8" y1="365.5" x2="301.8" y2="365.5"/>
<line class="st15" x1="239.8" y1="370.9" x2="265.4" y2="370.9"/>
<rect x="393.1" y="208.1" class="st11" width="41.4" height="6"/>
<rect x="268.6" y="207.8" class="st11" width="14.5" height="6.7"/>
<line class="st5" x1="116.3" y1="230.8" x2="151.5" y2="230.8"/>
<polyline class="st10" points="174,306.4 187.7,295.2 194.8,301.4 "/>
<polyline class="st10" points="226.9,308.3 208.4,289.1 187.7,308.3 "/>
<polyline class="st10" points="292.6,349.7 270.2,326.6 245.2,349.8 "/>
<path class="st10" d="M268.2,305.9c1.4-1.5,3.3-2.4,5.3-3.1c2.4-0.9,5-1.5,7.5-1c3.4,0.6,6.1,3,9,4.9c3.2,2,6.8,3.5,10.6,3.2
	c3.7-0.3,7.5-2.7,8.4-6.4"/>
<path class="st10" d="M249.4,279.1c0.8-1,2.1-1.5,3.4-1.9c1.2-0.4,2.5-0.8,3.8-0.7c2.2,0.2,4,1.9,6.1,2.7c3.6,1.4,8.1-0.5,9.7-4"/>
<line class="st10" x1="303.2" y1="247.9" x2="303.2" y2="262"/>
<line class="st10" x1="310.2" y1="254.9" x2="296.1" y2="254.9"/>
<g>
	<defs>
		<polygon id="SVGID_11_" points="303.2,230.8 331.2,230.8 331.2,288.1 390.7,288.1 393.1,208.1 303.2,211.1 		"/>
	</defs>
	<clipPath id="SVGID_12_">
		<use xlink:href="#SVGID_11_"  style="overflow:visible;"/>
	</clipPath>
	<g class="st16">
		<rect x="312.4" y="219.3" class="st10" width="67.5" height="61.7"/>
		<circle class="st10" cx="365.3" cy="236.1" r="5.3"/>
		<path class="st10" d="M315.9,262c5.7-5.1,14.8-5.1,21.6-1.6c3.1,1.6,5.9,3.9,9.3,4.5c3.7,0.7,7.4-0.6,10.8-2.2s6.7-3.5,10.4-4.2
			c2.2-0.4,4.4-0.3,6.5,0.2"/>
		<path class="st10" d="M328.4,275.6c2.2-1.8,5-2.7,7.8-2.4c2.4,0.2,4.7,1.1,7.1,1.7c2.3,0.6,4.7,0.8,7,0.4s4.5-1.6,5.9-3.5"/>
	</g>
</g>
</svg>
