<?xml version="1.0" encoding="utf-8"?>
<!-- Generator: Adobe Illustrator 20.1.0, SVG Export Plug-In . SVG Version: 6.00 Build 0)  -->
<svg version="1.1" id="Calque_1" xmlns="http://www.w3.org/2000/svg" xmlns:xlink="http://www.w3.org/1999/xlink" x="0px" y="0px"
	 viewBox="0 0 560 560" style="enable-background:new 0 0 560 560;" xml:space="preserve">
<style type="text/css">
	.st0{fill:#FFFFFF;}
	.st1{fill:#F8F7F7;}
	.st2{fill:#FCC856;}
	.st3{clip-path:url(#SVGID_2_);fill:#FCC856;}
	.st4{clip-path:url(#SVGID_2_);fill:#F9D998;}
	.st5{fill:#C4BEBB;}
	.st6{fill:none;stroke:#2A292A;stroke-width:2;stroke-miterlimit:10;}
	.st7{fill:none;stroke:#2A292A;stroke-width:3;stroke-miterlimit:10;}
	.st8{clip-path:url(#SVGID_4_);}
	.st9{clip-path:url(#SVGID_6_);fill:none;stroke:#2A292A;stroke-width:3;stroke-miterlimit:10;}
</style>
<rect x="170.9" y="170.8" class="st0" width="267.4" height="209.4"/>
<rect x="165.2" y="151.6" class="st1" width="294.6" height="235.3"/>
<path class="st0" d="M120.4,385.5c0,0-3.8,13.3,0.1,27.3c3.9,14,14.4,23.7,14.4,23.7l16.1-4.9c0,0-11.6-9-15.5-23
	c-3.9-14,1.3-27.7,1.3-27.7L120.4,385.5z"/>
<path class="st2" d="M116.3,390.5c0,0-3.8,13.3,0.1,27.3c3.9,14,14.4,23.7,14.4,23.7l19.6-5.1c0,0-15.4-10.2-19.4-24.2
	c-3.9-14,0-25.8,0-25.8L116.3,390.5z"/>
<path class="st1" d="M145,379.3c3.8-9.2,30.1-30.5,30.1-30.5c2.8-2.4,8.4-3.2,10.9-0.4h0c2.4,2.8,2.1,7.1-0.7,9.5
	c0,0-11.9,10.8-11.4,11.7c0.5,0.9,49-13.7,49-13.7c3.6-1,7.3,0.9,8.2,4.3v0c0.9,3.4-1.2,6.9-4.8,7.9L188,378.8l43.1-12.1
	c3.6-1,7.3,0.9,8.2,4.3v0c0.9,3.4-1.2,6.9-4.8,7.9l-37.4,10.5l31.8-8.9c3.6-1,7.3,0.9,8.2,4.3v0c0.9,3.4-1.2,6.9-4.8,7.9l-34.9,9.8
	l25.7-7.2c3.6-1,7.3,0.9,8.2,4.3v0c0.9,3.4-1.2,6.9-4.8,7.9c0,0-15.9,4.3-38,9.6c-16.2,3.9-28.3,2.1-35.4,0.1S141.2,388.5,145,379.3
	z"/>
<g>
	<defs>
		<polygon id="SVGID_1_" points="136.8,381 120.4,385.5 118.7,393.1 118.7,399.1 58.7,399.1 58.7,326.2 136.4,326.2 136.4,370.9 		
			"/>
	</defs>
	<clipPath id="SVGID_2_">
		<use xlink:href="#SVGID_1_"  style="overflow:visible;"/>
	</clipPath>
	<rect x="71.6" y="340.8" class="st3" width="56.4" height="56.4"/>
	<rect x="81.9" y="340.8" class="st4" width="46.1" height="46.1"/>
</g>
<circle class="st5" cx="262.3" cy="222.6" r="22.5"/>
<polygon class="st5" points="251.8,288.2 258.5,282.8 288.5,309.2 281.9,315 "/>
<polygon class="st5" points="424.3,338.3 346.2,257.3 340.1,262.9 417.7,344 "/>
<g>
	<polyline class="st6" points="122.8,409.7 130.1,407.6 126.7,405.7 	"/>
	<polyline class="st6" points="133.4,410.7 126,412.8 129.4,414.7 	"/>
	<path class="st7" d="M120.4,385.3c0,0-3.8,13.3,0.1,27.3c3.9,14,14.4,23.7,14.4,23.7l16.1-4.9c0,0-11.6-9-15.5-23
		c-3.9-14,1.3-27.7,1.3-27.7L120.4,385.3z"/>
	<path class="st7" d="M186.6,383.8l43.1-12.1c3.6-1,7.3,0.9,8.2,4.3v0c0.9,3.4-1.2,6.9-4.8,7.9l-37.4,10.5"/>
	<path class="st7" d="M195.7,394.4l31.8-8.9c3.6-1,7.3,0.9,8.2,4.3l0,0c0.9,3.4-1.2,6.9-4.8,7.9l-34.9,9.8"/>
	<path class="st7" d="M196,407.5l25.7-7.2c3.6-1,7.3,0.9,8.2,4.3v0c0.9,3.4-1.2,6.9-4.8,7.9c0,0-15.9,4.3-38,9.6
		c-16.2,3.9-31.6,1.5-35.4,0.1"/>
	<path class="st7" d="M143.6,384.3c6.4-12,30.1-30.5,30.1-30.5c2.8-2.4,8.4-3.2,10.9-0.4h0c2.4,2.8,2.1,7.1-0.7,9.5
		c0,0-11.9,10.8-11.4,11.7c0.5,0.9,49-13.7,49-13.7c3.6-1,7.3,0.9,8.2,4.3v0c0.9,3.4-1.2,6.9-4.8,7.9l-38.2,10.7"/>
	<path class="st7" d="M143,384.5"/>
	<path class="st7" d="M174.7,386c-3.6,6.6-15.7,17.8-25.9,18.9"/>
</g>
<g>
	<defs>
		<path id="SVGID_3_" d="M232.3,397.2c0,0,5-3.4,3.4-7.4c-1.6-4-3.9-5.5-3.9-5.5s4-1.5,6.3-4.1c2.3-2.7-8.3-26-8.3-26l-51-2.5
			l-7.3,3.9L153,372.4l-4.2-238.9l323.2,5v266.4h-3L232.3,397.2z"/>
	</defs>
	<clipPath id="SVGID_4_">
		<use xlink:href="#SVGID_3_"  style="overflow:visible;"/>
	</clipPath>
	<g class="st8">
		<rect x="170.9" y="170.8" class="st7" width="267.4" height="209.4"/>
		<rect x="157.3" y="157.8" class="st7" width="294.6" height="235.3"/>
		<circle class="st7" cx="256.1" cy="228.1" r="22.5"/>
		<polyline class="st7" points="194.5,335.8 252.3,288.2 282.3,314.6 		"/>
		<polyline class="st7" points="418.1,343.7 340,262.7 252.4,343.9 		"/>
	</g>
</g>
<g>
	<defs>
		<polygon id="SVGID_5_" points="126,383.5 120.4,385.3 118.4,396.4 100.7,399.1 58.7,399.1 58.7,326.2 136.4,326.2 136.8,380.7 		
			"/>
	</defs>
	<clipPath id="SVGID_6_">
		<use xlink:href="#SVGID_5_"  style="overflow:visible;"/>
	</clipPath>
	<rect x="76" y="336.7" class="st9" width="56.4" height="56.4"/>
	<polyline class="st9" points="98.9,380.2 98.9,353.2 89.3,362.9 	"/>
	<polyline class="st9" points="109.2,348.5 109.2,375.5 118.9,365.8 	"/>
</g>
</svg>
