<?xml version="1.0" encoding="UTF-8"?>
<svg width="34px" height="34px" viewBox="0 0 34 34" version="1.1" xmlns="http://www.w3.org/2000/svg" xmlns:xlink="http://www.w3.org/1999/xlink">
    <!-- Generator: Sketch 43.1 (39012) - http://www.bohemiancoding.com/sketch -->
    <title>Page 1</title>
    <desc>Created with Sketch.</desc>
    <defs></defs>
    <g id="Page-1" stroke="none" stroke-width="1" fill="none" fill-rule="evenodd">
        <g id="06.1-Informations-BPI" transform="translate(-1288.000000, -713.000000)" fill="#908A86">
            <g id="Page-1" transform="translate(1288.000000, 713.000000)">
                <path d="M0,34 L34,34 L34,0 L0,0 L0,34 Z M1.5,32.5 L32.5,32.5 L32.5,1.5 L1.5,1.5 L1.5,32.5 Z" id="Fill-1"></path>
                <path d="M14.7103,26 L17.9853,26 L17.9853,17.004 L20.4423,17.004 L20.9283,14.194 L17.9853,14.194 L17.9853,12.157 C17.9853,11.5 18.4103,10.811 19.0163,10.811 L20.6893,10.811 L20.6893,8 L18.6393,8 L18.6393,8.013 C15.4323,8.129 14.7733,9.986 14.7163,11.937 L14.7103,11.937 L14.7103,14.194 L13.0723,14.194 L13.0723,17.004 L14.7103,17.004 L14.7103,26 Z" id="Fill-2"></path>
            </g>
        </g>
    </g>
</svg>