<?xml version="1.0" encoding="UTF-8" standalone="no"?>
<svg width="24px" height="19px" viewBox="0 0 24 19" version="1.1" xmlns="http://www.w3.org/2000/svg" xmlns:xlink="http://www.w3.org/1999/xlink">
    <!-- Generator: Sketch 43.1 (39012) - http://www.bohemiancoding.com/sketch -->
    <title>logo-peek</title>
    <desc>Created with Sketch.</desc>
    <defs></defs>
    <g id="Page-1" stroke="none" stroke-width="1" fill="none" fill-rule="evenodd">
        <g id="Artboard" transform="translate(-175.000000, -110.000000)" fill="#FFFFFF">
            <g id="logo-peek" transform="translate(175.000000, 110.000000)">
                <path d="M10.1888,8.7996 C10.1738,8.3246 10.0508,7.9656 9.8188,7.7216 C9.5918,7.4906 9.2998,7.3746 8.9428,7.3746 C8.5868,7.3746 8.2948,7.4906 8.0668,7.7216 C7.8438,7.9656 7.7198,8.3246 7.6978,8.7996 L10.1888,8.7996 Z M7.6978,9.8066 C7.6978,10.2956 7.8338,10.6666 8.1058,10.9206 C8.3598,11.1786 8.6928,11.3076 9.1058,11.3076 C9.5868,11.3076 10.0168,11.1106 10.3948,10.7156 L11.2528,11.4716 C10.6508,12.1346 9.9438,12.4636 9.1308,12.4556 C8.8208,12.4556 8.5178,12.4086 8.2228,12.3146 C8.0748,12.2636 7.9318,12.1956 7.7918,12.1096 C7.6438,12.0356 7.5058,11.9436 7.3768,11.8346 C7.1278,11.6076 6.9258,11.2916 6.7708,10.8846 C6.5998,10.4946 6.5148,9.9866 6.5148,9.3616 C6.5148,8.7596 6.5888,8.2596 6.7358,7.8616 C6.8838,7.4556 7.0728,7.1346 7.3038,6.9006 C7.5378,6.6626 7.8008,6.4906 8.0918,6.3846 C8.3798,6.2796 8.6638,6.2266 8.9428,6.2266 C9.6168,6.2346 10.1858,6.4636 10.6508,6.9126 C11.1238,7.3696 11.3638,7.9986 11.3718,8.7996 L11.3718,9.8066 L7.6978,9.8066 Z" id="e-1"></path>
                <path d="M16.1888,8.7996 C16.1668,8.3246 16.0428,7.9656 15.8188,7.7216 C15.5918,7.4906 15.2998,7.3746 14.9428,7.3746 C14.5868,7.3746 14.2948,7.4906 14.0668,7.7216 C13.8358,7.9656 13.7128,8.3246 13.6978,8.7996 L16.1888,8.7996 Z M12.5148,9.8066 L12.5148,8.7996 C12.5228,7.9986 12.7628,7.3696 13.2358,6.9126 C13.7008,6.4636 14.2698,6.2346 14.9428,6.2266 C15.2228,6.2266 15.5068,6.2796 15.7938,6.3846 C16.0848,6.4906 16.3488,6.6626 16.5828,6.9006 C16.8138,7.1346 17.0028,7.4556 17.1498,7.8616 C17.2978,8.2596 17.3718,8.7596 17.3718,9.3616 C17.3718,9.9866 17.2868,10.4946 17.1158,10.8846 C16.9608,11.2916 16.7588,11.6076 16.5088,11.8346 C16.3798,11.9436 16.2428,12.0356 16.0948,12.1096 C15.9548,12.1956 15.8118,12.2636 15.6638,12.3146 C15.3688,12.4086 15.0658,12.4556 14.7558,12.4556 C13.9428,12.4636 13.2348,12.1346 12.6338,11.4716 L13.4918,10.7156 C13.8698,11.1106 14.2998,11.3076 14.7808,11.3076 C15.1928,11.3076 15.5258,11.1786 15.7798,10.9206 C16.0528,10.6666 16.1888,10.2956 16.1888,9.8066 L12.5148,9.8066 Z" id="e-2"></path>
                <polygon id="p" points="5.2208 6.4324 -0.0002 11.6534 0.7928 12.4464 4.3368 8.9024 4.3368 18.6844 5.4568 18.6844 5.4568 6.4324"></polygon>
                <polygon id="k" points="18.7513 12.2329 23.9533 7.0299 23.1613 6.2379 19.6173 9.7819 19.6173 -0.0001 18.4963 -0.0001 18.4963 12.2329"></polygon>
            </g>
        </g>
    </g>
</svg>