<?xml version="1.0" encoding="UTF-8"?>
<svg width="34px" height="34px" viewBox="0 0 34 34" version="1.1" xmlns="http://www.w3.org/2000/svg" xmlns:xlink="http://www.w3.org/1999/xlink">
    <!-- Generator: Sketch 43.1 (39012) - http://www.bohemiancoding.com/sketch -->
    <title>Page 1</title>
    <desc>Created with Sketch.</desc>
    <defs></defs>
    <g id="Page-1" stroke="none" stroke-width="1" fill="none" fill-rule="evenodd">
        <g id="06.1-Informations-BPI" transform="translate(-1339.000000, -713.000000)" fill="#908A86">
            <g id="Page-1" transform="translate(1339.000000, 713.000000)">
                <path d="M0,34 L34,34 L34,0 L0,0 L0,34 Z M1.5,32.5 L32.5,32.5 L32.5,1.5 L1.5,1.5 L1.5,32.5 Z" id="Fill-1"></path>
                <path d="M25.1249,10.3107 C24.6239,10.6317 23.4749,11.0977 22.9079,11.0977 L22.9079,11.0987 C22.2609,10.4217 21.3489,9.9997 20.3389,9.9997 C18.3759,9.9997 16.7839,11.5917 16.7839,13.5537 C16.7839,13.8267 16.8159,14.0927 16.8739,14.3477 L16.8729,14.3477 C14.2109,14.2777 11.2979,12.9427 9.5449,10.6587 C8.4669,12.5247 9.3999,14.5997 10.6229,15.3557 C10.2049,15.3867 9.4339,15.3077 9.0709,14.9537 C9.0469,16.1917 9.6419,17.8327 11.8129,18.4277 C11.3949,18.6527 10.6549,18.5877 10.3329,18.5397 C10.4459,19.5857 11.9099,20.9517 13.5109,20.9517 C12.9399,21.6117 10.7939,22.8087 8.3849,22.4277 C10.0209,23.4237 11.9269,23.9997 13.9449,23.9997 C19.6799,23.9997 24.1339,19.3517 23.8949,13.6187 C23.8939,13.6117 23.8939,13.6057 23.8929,13.5987 C23.8939,13.5837 23.8949,13.5697 23.8949,13.5537 C23.8949,13.5357 23.8929,13.5197 23.8919,13.5017 C24.4149,13.1447 25.1149,12.5137 25.6149,11.6817 C25.3249,11.8417 24.4549,12.1617 23.6439,12.2417 C24.1639,11.9607 24.9349,11.0417 25.1249,10.3107" id="Fill-2"></path>
            </g>
        </g>
    </g>
</svg>