<?xml version="1.0" encoding="utf-8"?>
<!-- Generator: Adobe Illustrator 20.1.0, SVG Export Plug-In . SVG Version: 6.00 Build 0)  -->
<svg version="1.1" id="Calque_1" xmlns="http://www.w3.org/2000/svg" xmlns:xlink="http://www.w3.org/1999/xlink" x="0px" y="0px"
	 viewBox="0 0 560 560" style="enable-background:new 0 0 560 560;" xml:space="preserve">
<style type="text/css">
	.st0{fill:#F8F7F7;}
	.st1{fill:#FFFFFF;}
	.st2{clip-path:url(#SVGID_2_);fill:#FFFFFF;}
	.st3{clip-path:url(#SVGID_2_);fill:#F8F7F7;}
	.st4{clip-path:url(#SVGID_2_);fill:#FCC856;}
	.st5{clip-path:url(#SVGID_2_);fill:#DEDAD8;}
	.st6{clip-path:url(#SVGID_2_);fill:#F9D998;}
	.st7{clip-path:url(#SVGID_4_);}
	.st8{fill:#2A292A;}
	.st9{fill:none;stroke:#2A292A;stroke-width:4;stroke-miterlimit:10;}
	.st10{fill:none;stroke:#2A292A;stroke-width:6;stroke-miterlimit:10;}
	.st11{fill:none;stroke:#2A292A;stroke-width:3;stroke-miterlimit:10;}
	.st12{clip-path:url(#SVGID_6_);}
	.st13{fill:#C4BEBB;}
	.st14{fill:none;stroke:#C4BEBB;stroke-width:3;stroke-miterlimit:10;}
	.st15{clip-path:url(#SVGID_8_);}
	.st16{clip-path:url(#SVGID_10_);fill:#C4BEBB;}
</style>
<rect x="369.9" y="366.7" class="st0" width="95.9" height="95.9"/>
<rect x="281.8" y="133.2" class="st0" width="67.2" height="67.2"/>
<rect x="119.6" y="97.1" class="st0" width="67.2" height="67.2"/>
<rect x="74.6" y="386.2" class="st0" width="96.2" height="96.2"/>
<polygon class="st1" points="122.7,467.6 89.4,467.6 89.4,416.1 140.9,416.1 140.9,449.3 "/>
<ellipse transform="matrix(0.7071 -0.7071 0.7071 0.7071 -173.9427 400.4536)" class="st1" cx="396.4" cy="410.2" rx="20.1" ry="20.1"/>
<rect x="419.2" y="423" transform="matrix(0.7071 -0.7071 0.7071 0.7071 -185.4966 428.3471)" class="st1" width="10.3" height="30.2"/>
<ellipse transform="matrix(0.7071 -0.7071 0.7071 0.7071 -173.9427 400.4536)" class="st0" cx="396.4" cy="410.2" rx="14.2" ry="14.2"/>
<rect x="402.9" y="132.1" class="st0" width="95.9" height="95.9"/>
<circle class="st1" cx="442" cy="187.3" r="27.1"/>
<g>
	<defs>
		<polygon id="SVGID_1_" points="460,234.7 395.9,234.7 395.9,180 349,180 349,199.6 345.5,199.7 345.7,205.3 277.3,205.3 
			277.3,180 81.2,180 81.2,386.2 170.8,386.2 170.8,431.1 200.5,458.6 200.5,501.6 362.9,501.6 362.9,498.6 362.9,374.8 
			369.9,374.8 369.9,366.7 469.1,366.7 		"/>
	</defs>
	<clipPath id="SVGID_2_">
		<use xlink:href="#SVGID_1_"  style="overflow:visible;"/>
	</clipPath>
	<path class="st2" d="M447.3,431.5H101.7c-3.9,0-7-3.1-7-7V193.2c0-3.9,3.1-7,7-7h345.6c3.9,0,7,3.1,7,7v231.3
		C454.3,428.4,451.1,431.5,447.3,431.5z"/>
	<polygon class="st3" points="325.6,478.5 238.3,478.5 241.3,431.5 322.6,431.5 	"/>
	<path class="st3" d="M348.5,490.7v-2.5c0-5.9-3.8-9.6-9.2-9.6H230.4c-5.5,0-10.2,3.8-10.2,9.6v2.5H348.5z"/>
	<path class="st3" d="M100.5,391v33.8c0,3.8,3.2,7,7,7H453c3.9,0,7-3.2,7-7V391H100.5z"/>
	<rect x="109" y="198.9" class="st3" width="336.7" height="181.8"/>
	<rect x="127" y="236.4" class="st4" width="48.1" height="5.5"/>
	<rect x="124.8" y="218.6" class="st4" width="72.6" height="5.6"/>
	<rect x="273.1" y="198.2" class="st5" width="170" height="181.5"/>
	<rect x="273.1" y="224.9" class="st2" width="144.3" height="128.4"/>
	<rect x="274.5" y="231.6" class="st4" width="134.8" height="128.4"/>
	<rect x="282" y="231.6" class="st6" width="127.4" height="116.7"/>
</g>
<g>
	<defs>
		<polygon id="SVGID_3_" points="460,234.7 395.9,234.7 395.9,180 349,180 349,205.3 277.3,205.3 277.3,180 81.2,180 81.2,386.2 
			170.8,386.2 170.8,434.3 200.5,458.6 200.5,501.6 362.9,501.6 362.9,498.6 362.9,366.7 469.1,366.7 		"/>
	</defs>
	<clipPath id="SVGID_4_">
		<use xlink:href="#SVGID_3_"  style="overflow:visible;"/>
	</clipPath>
	<g class="st7">
		<rect x="409" y="213" class="st8" width="10.5" height="5.6"/>
		<g>
			<line class="st9" x1="123.6" y1="208.8" x2="164.4" y2="208.8"/>
			<line class="st10" x1="123.6" y1="218.6" x2="194.1" y2="218.6"/>
			<circle class="st11" cx="186.3" cy="318.1" r="11.2"/>
			<polygon class="st11" points="185.2,322.3 185.2,313.4 191.2,317.9 			"/>
			<rect x="124.6" y="234.2" class="st8" width="48.5" height="4.4"/>
			<g>
				<rect x="125.2" y="293.7" class="st11" width="125.1" height="51.5"/>
			</g>
			<line class="st11" x1="124.6" y1="250.6" x2="252.8" y2="250.6"/>
			<line class="st11" x1="124.6" y1="250.6" x2="252.8" y2="250.6"/>
			<line class="st11" x1="124.6" y1="257.7" x2="252.8" y2="257.7"/>
			<line class="st11" x1="124.6" y1="264.8" x2="252.8" y2="264.8"/>
			<line class="st11" x1="124.6" y1="271.9" x2="252.8" y2="271.9"/>
			<line class="st11" x1="124.6" y1="279" x2="189.5" y2="279"/>
			<line class="st11" x1="124.6" y1="355" x2="252.8" y2="355"/>
			<line class="st11" x1="124.6" y1="362.1" x2="252.8" y2="362.1"/>
			<line class="st11" x1="124.6" y1="369.2" x2="158.6" y2="369.2"/>
		</g>
		<g>
			<defs>
				<rect id="SVGID_5_" x="274.5" y="215.8" width="150.9" height="150.9"/>
			</defs>
			<clipPath id="SVGID_6_">
				<use xlink:href="#SVGID_5_"  style="overflow:visible;"/>
			</clipPath>
			<g class="st12">
				<rect x="251.4" y="223.4" class="st11" width="167.1" height="130.9"/>
				<circle class="st11" cx="304.7" cy="259.2" r="14.1"/>
				<polyline class="st11" points="266.2,326.5 302.3,296.8 321.1,313.3 				"/>
				<polyline class="st11" points="406,331.5 357.1,280.9 302.4,331.6 				"/>
			</g>
		</g>
		<g>
			<path class="st11" d="M447.5,431.5H101.9c-3.8,0-7-3.1-7-7V193.2c0-3.9,3.2-7,7-7h345.6c3.9,0,7,3.1,7,7v231.3
				C454.5,428.4,451.4,431.5,447.5,431.5z"/>
			<line class="st11" x1="94.9" y1="390.6" x2="454.5" y2="390.6"/>
			<rect x="106.3" y="198.2" class="st11" width="336.7" height="181.8"/>
			<circle class="st13" cx="274.7" cy="411.5" r="9.9"/>
			<polygon class="st11" points="318.4,478.5 231,478.5 234.1,431.5 315.3,431.5 			"/>
			<path class="st11" d="M340,490.7v-2.5c0-5.9-4-9.6-9.9-9.6H222.9c-5.9,0-10.9,3.8-10.9,9.6v2.5H340z"/>
			<line class="st11" x1="273.5" y1="198.8" x2="273.5" y2="381.4"/>
		</g>
	</g>
</g>
<rect x="362.9" y="374.8" class="st14" width="95.9" height="95.9"/>
<rect x="277.3" y="138.1" class="st14" width="67.2" height="67.2"/>
<rect x="115.1" y="102" class="st14" width="67.2" height="67.2"/>
<rect x="67.6" y="393.7" class="st14" width="96.2" height="96.2"/>
<polygon class="st14" points="122.7,467.6 89.4,467.6 89.4,416.1 140.9,416.1 140.9,449.3 "/>
<polyline class="st14" points="122.7,467.6 122.7,449.3 140.9,449.3 "/>
<line class="st14" x1="95.8" y1="425.5" x2="131.8" y2="425.5"/>
<line class="st14" x1="95.8" y1="433.1" x2="131.8" y2="433.1"/>
<line class="st14" x1="95.8" y1="440.7" x2="131.8" y2="440.7"/>
<line class="st14" x1="95.8" y1="448.2" x2="111.5" y2="448.2"/>
<g>
	<defs>
		<path id="SVGID_7_" d="M304.8,155c-5.6,4.3-7.1,11-5.4,11.2c2.2,0.2,4.5,0.9,6.3,2.6c3.7,3.6,3.7,9.6,0.1,13.2
			c-3.6,3.6-9.6,3.6-13.1,0c-5.6-5.7-0.9-15.5,2.4-20.4c1.4-2.1,4.2-5.3,8.9-7.9L304.8,155z M328.1,155c-5.5,4.3-7.1,11-5.4,11.2
			c2.3,0.2,4.5,0.9,6.3,2.6c3.7,3.6,3.8,9.6,0.1,13.2c-3.6,3.6-9.5,3.6-13,0c-5.7-5.7-0.9-15.5,2.3-20.4c1.5-2.1,4.3-5.3,8.9-7.9
			L328.1,155z"/>
	</defs>
	<use xlink:href="#SVGID_7_"  style="overflow:visible;fill-rule:evenodd;clip-rule:evenodd;fill:#C4BEBB;"/>
	<clipPath id="SVGID_8_">
		<use xlink:href="#SVGID_7_"  style="overflow:visible;"/>
	</clipPath>
	<g class="st15">
		<defs>
			<rect id="SVGID_9_" x="-3.7" y="-295.1" width="2038.3" height="1387.2"/>
		</defs>
		<use xlink:href="#SVGID_9_"  style="overflow:visible;fill:#C4BEBB;"/>
		<clipPath id="SVGID_10_">
			<use xlink:href="#SVGID_9_"  style="overflow:visible;"/>
		</clipPath>
		<rect x="283" y="146.7" class="st16" width="55.9" height="45.1"/>
	</g>
</g>
<ellipse transform="matrix(0.7071 -0.7071 0.7071 0.7071 -173.9427 400.4536)" class="st14" cx="396.4" cy="410.2" rx="20.1" ry="20.1"/>
<ellipse transform="matrix(0.7071 -0.7071 0.7071 0.7071 -173.9427 400.4536)" class="st14" cx="396.4" cy="410.2" rx="14.2" ry="14.2"/>
<rect x="433.4" y="448.1" transform="matrix(0.7071 -0.7071 0.7071 0.7071 -190.5116 440.4546)" class="st14" width="6.1" height="4.1"/>
<rect x="409.3" y="424.3" transform="matrix(0.7071 -0.7071 0.7071 0.7071 -180.5444 416.3915)" class="st14" width="6.1" height="3.7"/>
<rect x="419.2" y="423" transform="matrix(0.7071 -0.7071 0.7071 0.7071 -185.4966 428.3471)" class="st14" width="10.3" height="30.2"/>
<rect x="395.9" y="138.8" class="st14" width="95.9" height="95.9"/>
<circle class="st14" cx="442" cy="187.3" r="27.1"/>
<polygon class="st13" points="436.8,201.2 436.8,172.3 456.3,186.8 "/>
<g>
	<rect x="134.6" y="133" class="st14" width="6.1" height="26.7"/>
	<path class="st14" d="M125.7,153.6l9,3.5v-21.4l-9.1,4.1c-1.2,0.5-1.9,1.7-1.9,3v7.8C123.6,151.9,124.4,153.1,125.7,153.6z"/>
	
		<rect x="156.7" y="133" transform="matrix(-1 -4.444768e-11 4.444768e-11 -1 319.5661 292.7945)" class="st14" width="6.1" height="26.7"/>
	<path class="st14" d="M171.8,153.6l-8.9,3.5v-21.4l9.1,4.1c1.2,0.5,1.9,1.7,1.9,3v7.8C173.8,151.9,173,153.1,171.8,153.6z"/>
	<path class="st14" d="M127.2,138.4V134c0-11.8,9.7-21.5,21.5-21.5h0c11.8,0,21.5,9.7,21.5,21.5v4.8"/>
</g>
</svg>
