<?xml version="1.0" encoding="UTF-8" standalone="no"?>
<svg width="83px" height="107px" viewBox="0 0 83 107" version="1.1" xmlns="http://www.w3.org/2000/svg" xmlns:xlink="http://www.w3.org/1999/xlink">
    <!-- Generator: Sketch 43.1 (39012) - http://www.bohemiancoding.com/sketch -->
    <title>Group 2</title>
    <desc>Created with Sketch.</desc>
    <defs></defs>
    <g id="V2" stroke="none" stroke-width="1" fill="none" fill-rule="evenodd">
        <g id="00.Veille" transform="translate(-463.000000, -478.000000)" stroke="#C4BEBB" stroke-width="3">
            <g id="Group-2" transform="translate(458.000000, 473.000000)">
                <g id="Group" transform="translate(22.000000, 34.000000)">
                    <path d="M28.468826,38.4616728 L25.2857377,26.3706039 C24.4015466,23.2011003 25.9930907,20.0902914 28.9993407,19.2685682 L28.9993407,19.2685682 C32.0055907,18.4468451 35.1886789,20.3250694 36.0728701,23.4945729 L39.4917426,35.0573912" id="Shape"></path>
                    <path d="M39.4917426,35.0573912 L36.780223,25.8423533 C35.8960319,22.6728498 37.6054681,19.3859572 40.6117181,18.5642341 L40.6117181,18.5642341 C43.6179681,17.742511 46.8010564,19.6207353 47.6852475,22.7902388 L50.3967672,32.5335273" id="Shape"></path>
                    <path d="M50.3967672,32.5335273 L49.0410073,27.6618831 C48.1568162,24.4923796 49.8662524,21.205487 52.8725024,20.3837639 L52.8725024,20.3837639 C55.8787524,19.5620408 59.0618407,21.4402651 59.9460319,24.6097686 C59.9460319,24.6097686 61.2428456,28.8944678 62.8343897,37.8747277 C65.4869632,52.3722715 64.1901495,65.9307032 62.8933358,69.2762902" id="Shape"></path>
                    <path d="M29.1172328,76.4957148 C18.3890466,70.8023474 1.94309068,49.8484076 1.94309068,49.8484076 C-0.237914222,47.3832382 -0.886321084,42.3942049 1.58941421,40.2225081 L1.58941421,40.2225081 C4.0651495,38.0508112 7.8966446,38.3442838 10.0776495,40.8094532 C10.0776495,40.8094532 19.6858603,51.4331593 20.4521593,50.9636033 C21.2774044,50.4940472 8.25032107,7.47097184 8.25032107,7.47097184 C7.3661299,4.30146834 9.07556617,1.01457582 12.0818162,0.192852686 L12.0818162,0.192852686 C15.0880662,-0.628870445 18.2711544,1.24935385 19.1553456,4.41885736 L28.468826,38.4029783" id="Shape"></path>
                </g>
                <path d="M55,31 C55,17.745166 44.254834,7 31,7 C17.745166,7 7,17.745166 7,31 C7,44.254834 17.745166,55 31,55 L31,55" id="Oval-3" transform="translate(31.000000, 31.000000) rotate(20.000000) translate(-31.000000, -31.000000) "></path>
            </g>
        </g>
    </g>
</svg>