<?xml version="1.0" encoding="UTF-8"?>
<svg width="30px" height="22px" viewBox="0 0 30 22" version="1.1" xmlns="http://www.w3.org/2000/svg" xmlns:xlink="http://www.w3.org/1999/xlink">
    <!-- Generator: Sketch 43.1 (39012) - http://www.bohemiancoding.com/sketch -->
    <title>icon-guillemets-ouverture</title>
    <desc>Created with Sketch.</desc>
    <defs></defs>
    <g id="Page-1" stroke="none" stroke-width="1" fill="none" fill-rule="evenodd">
        <g id="04.2-Detail-oeuvre-categorie1" transform="translate(-91.000000, -992.000000)" fill="#FCC854">
            <g id="Contenu" transform="translate(57.000000, 265.000000)">
                <g id="Citation" transform="translate(34.000000, 727.000000)">
                    <path d="M26.8800187,0.84345458 C23.0125877,3.86623285 21.8887803,8.64900371 23.083275,8.78918011 C24.700695,8.92935651 26.2474277,9.42177105 27.5126096,10.6162657 C30.1148587,13.1490256 30.1855459,17.3662985 27.5832968,19.9685476 C25.0529331,22.4989113 20.9039513,22.4989113 18.3723894,19.9685476 C14.3659802,15.9597421 17.7397985,9.00004376 19.9898094,5.55553819 C21.0441277,4.07829459 23.0125877,1.82828365 26.2474277,0 L26.8800187,0.84345458 Z M10.406248,0.84345458 C6.46812984,3.86623285 5.41381162,8.64900371 6.60950433,8.78918011 C8.15623709,8.92935651 9.7736571,9.42177105 11.038839,10.6162657 C13.641088,13.1490256 13.641088,17.3662985 11.1095262,19.9685476 C8.57796438,22.4989113 4.35949339,22.4989113 1.82793156,19.9685476 C-2.10898854,15.9597421 1.19534063,9.00004376 3.51484072,5.55553819 C4.50086788,4.07829459 6.46812984,1.82828365 9.7736571,0 L10.406248,0.84345458 Z" id="icon-guillemets-ouverture"></path>
                </g>
            </g>
        </g>
    </g>
</svg>