<?xml version="1.0" encoding="UTF-8"?>
<svg width="30px" height="22px" viewBox="0 0 30 22" version="1.1" xmlns="http://www.w3.org/2000/svg" xmlns:xlink="http://www.w3.org/1999/xlink">
    <!-- Generator: Sketch 43.1 (39012) - http://www.bohemiancoding.com/sketch -->
    <title>icon-guillemets-fermeture</title>
    <desc>Created with Sketch.</desc>
    <defs></defs>
    <g id="Page-1" stroke="none" stroke-width="1" fill="none" fill-rule="evenodd">
        <g id="04.2-Detail-oeuvre-categorie1" transform="translate(-600.000000, -1104.000000)" fill="#FCC854">
            <g id="Contenu" transform="translate(57.000000, 265.000000)">
                <g id="Citation" transform="translate(34.000000, 727.000000)">
                    <path d="M535.880019,112.843455 C532.012588,115.866233 530.88878,120.649004 532.083275,120.78918 C533.700695,120.929357 535.247428,121.421771 536.51261,122.616266 C539.114859,125.149026 539.185546,129.366298 536.583297,131.968548 C534.052933,134.498911 529.903951,134.498911 527.372389,131.968548 C523.36598,127.959742 526.739798,121.000044 528.989809,117.555538 C530.044128,116.078295 532.012588,113.828284 535.247428,112 L535.880019,112.843455 Z M519.406248,112.843455 C515.46813,115.866233 514.413812,120.649004 515.609504,120.78918 C517.156237,120.929357 518.773657,121.421771 520.038839,122.616266 C522.641088,125.149026 522.641088,129.366298 520.109526,131.968548 C517.577964,134.498911 513.359493,134.498911 510.827932,131.968548 C506.891011,127.959742 510.195341,121.000044 512.514841,117.555538 C513.500868,116.078295 515.46813,113.828284 518.773657,112 L519.406248,112.843455 Z" id="icon-guillemets-fermeture" transform="translate(523.750000, 122.933160) rotate(-180.000000) translate(-523.750000, -122.933160) "></path>
                </g>
            </g>
        </g>
    </g>
</svg>