<?xml version="1.0" encoding="utf-8"?>
<!-- Generator: Adobe Illustrator 20.1.0, SVG Export Plug-In . SVG Version: 6.00 Build 0)  -->
<svg version="1.1" id="Calque_1" xmlns="http://www.w3.org/2000/svg" xmlns:xlink="http://www.w3.org/1999/xlink" x="0px" y="0px"
	 viewBox="0 0 34 34" style="enable-background:new 0 0 34 34;" xml:space="preserve">
<style type="text/css">
	.st0{fill:#FFFFFF;}
</style>
<g>
	<g>
		<g>
			<path class="st0" d="M32.5,1.5v31h-31v-31H32.5 M34,0H0v34h34V0L34,0z"/>
		</g>
	</g>
	<g>
		<path class="st0" d="M14,26v-0.1c0.4-0.1,0.7-0.3,0.9-0.4c0.2-0.2,0.4-0.4,0.6-0.6c0.1-0.3,0.2-0.6,0.3-0.9
			c0.1-0.4,0.1-0.8,0.1-1.3v-5.1c0-0.6,0-1-0.1-1.4c0-0.4-0.1-0.7-0.3-0.9c-0.2-0.3-0.4-0.5-0.7-0.6s-0.7-0.3-1.2-0.5v-0.1
			c0.4,0,0.8-0.1,1.2-0.1c0.4-0.1,0.9-0.2,1.3-0.3c0.4-0.1,0.8-0.2,1.2-0.4c0.4-0.1,0.7-0.2,1-0.4h0.1v9.8c0,0.5,0,1,0.1,1.3
			c0.1,0.4,0.1,0.7,0.3,0.9c0.1,0.3,0.3,0.5,0.6,0.6c0.2,0.2,0.5,0.3,0.9,0.4V26H14z M18.7,9.5c0,0.4-0.2,0.8-0.4,1.1
			C18,10.9,17.6,11,17.2,11s-0.8-0.1-1.1-0.4c-0.3-0.3-0.4-0.7-0.4-1.1c0-0.4,0.1-0.8,0.4-1.1c0.2-0.3,0.6-0.4,1-0.4
			s0.8,0.1,1.1,0.4C18.5,8.7,18.7,9.1,18.7,9.5z"/>
	</g>
</g>
</svg>
