<?xml version="1.0" encoding="utf-8"?>
<!-- Generator: Adobe Illustrator 20.1.0, SVG Export Plug-In . SVG Version: 6.00 Build 0)  -->
<svg version="1.1" id="Calque_1" xmlns="http://www.w3.org/2000/svg" xmlns:xlink="http://www.w3.org/1999/xlink" x="0px" y="0px"
	 viewBox="0 0 34 34" style="enable-background:new 0 0 34 34;" xml:space="preserve">
<style type="text/css">
	.st0{fill:#FFFFFF;}
	.st1{fill:none;stroke:#FFFFFF;stroke-width:1.5;stroke-miterlimit:10;}
</style>
<g>
	<g>
		<path class="st0" d="M32.5,1.5v31h-31v-31H32.5 M34,0H0v34h34V0L34,0z"/>
	</g>
</g>
<line id="XMLID_16_" class="st1" x1="8.1" y1="12.4" x2="20.3" y2="12.4"/>
<g id="XMLID_15_">
	<circle class="st0" cx="22.6" cy="12.4" r="3.3"/>
</g>
<line id="XMLID_3_" class="st1" x1="25.9" y1="21.6" x2="14.2" y2="21.6"/>
<g id="XMLID_2_">
	<path class="st0" d="M11.4,19.9c1,0,1.8,0.8,1.8,1.8s-0.8,1.8-1.8,1.8s-1.8-0.8-1.8-1.8S10.4,19.9,11.4,19.9 M11.4,18.4
		c-1.8,0-3.3,1.5-3.3,3.3S9.6,25,11.4,25s3.3-1.5,3.3-3.3S13.2,18.4,11.4,18.4L11.4,18.4z"/>
</g>
</svg>
