<?xml version="1.0" encoding="utf-8"?>
<!-- Generator: Adobe Illustrator 20.1.0, SVG Export Plug-In . SVG Version: 6.00 Build 0)  -->
<svg version="1.1" id="Calque_1" xmlns="http://www.w3.org/2000/svg" xmlns:xlink="http://www.w3.org/1999/xlink" x="0px" y="0px"
	 viewBox="0 0 29 29" style="enable-background:new 0 0 29 29;" xml:space="preserve">
<style type="text/css">
	.st0{fill:#FFFFFF;}
</style>
<title>Page 1</title>
<desc>Created with Sketch.</desc>
<path class="st0" d="M23.6,13.7c0-1-0.8-1.7-1.7-1.7c-1,0-1.7,0.8-1.7,1.7c0,0.7,0.4,1.3,1,1.6v2.4c0,1.8-1.5,3.3-3.3,3.3
	s-3.3-1.5-3.3-3.3v-2.4v-0.5v-4.1c0-2.2-1.8-4-4-4s-4,1.8-4,4v3.3c-0.7,0.3-1.2,1-1.2,1.8c0,1.1,0.9,1.9,1.9,1.9
	c1.1,0,1.9-0.9,1.9-1.9c0-0.8-0.5-1.5-1.2-1.8v-3.3c0-1.4,1.1-2.5,2.5-2.5S13,9.2,13,10.6v4.1v0.5v2.4c0,2.7,2.2,4.8,4.8,4.8
	s4.8-2.2,4.8-4.8v-2.4C23.2,14.9,23.6,14.3,23.6,13.7z"/>
<path class="st0" d="M27.5,1.5v26h-26v-26H27.5 M29,0h-1.5h-26H0v1.5v26V29h1.5h26H29v-1.5v-26V0L29,0z"/>
</svg>
